<svg version="1.1" xmlns="http://www.w3.org/2000/svg" x="0" y="0" viewBox="0 0 204 62" xml:space="preserve"><style>.prefix__st0{fill:#fff}</style><path class="prefix__st0" d="M15.5 14.6h-.3c-2.7 0-5.2.9-7.2 2.4V1.6c0-.6-.4-1-1-1H1c-.6 0-1 .4-1 1v43.3c0 .6.4 1 1 1h6.1c.6 0 1-.4 1-1V28.5c0-3.5 2.5-6 6.1-6h.3c5.2 0 5.8 4.1 5.8 5.9v16.4c0 .6.4 1 1 1h6c.6 0 1-.4 1-1V28.4c0-8.2-5.1-13.8-12.8-13.8zM86.4 15.6c-5.8-1.1-9.9 1.1-11.9 2.5V17c0-.6-.4-1-1-1h-6.1c-.6 0-1 .4-1 1v43.3c0 .6.4 1 1 1h6.1c.6 0 1-.4 1-1V44.4c2.4 2.2 5.6 3.6 9.2 3.6 8.2 0 15-7.1 15-16.4 0-8.2-5.4-14.7-12.3-16zM83 40.7c-4.4 0-8-4.1-8-9s3.6-8.9 8-8.9 8 3.8 8 8.9-3.5 9-8 9zM47.3 15.2c-9.2 0-15.9 7.5-15.9 16.5 0 4 1.3 7.6 3.5 10.4 3 3.7 7.5 6 12.4 6 7.8 0 13.3-4.3 15.2-10.7H54c-1.3 2.5-4 3.6-6.6 3.6-3.8 0-6.8-2.4-7.8-6.2h23.7c1-12.3-6.7-19.6-16-19.6zm-7.7 13.2c1.1-3.6 4.1-6 7.7-6 3.8 0 6.9 2.3 7.8 6H39.6zM124.9 14.8h-6.2c-.5 0-.9.3-1.1.7L96.5 59.8c-.1.2-.1.3-.1.5 0 .5.4 1 1 1h6.2c.5 0 .9-.3 1.1-.7l21.1-44.4c.1-.2.1-.3.1-.5 0-.6-.4-.9-1-.9z"/><g><path class="prefix__st0" d="M138.1 24.5h-1.5v-3.4c0-.3-.1-1.1-1.1-1.1-.7 0-1.1.5-1.1 1.1v3.4h-1.5v-8.6h1.5v3c.4-.3.9-.5 1.3-.5 1.4 0 2.4 1.1 2.4 2.6v3.5zM143.3 23.9c-.4.4-1 .7-1.8.7-1.2 0-2.4-.6-2.4-1.9s1.1-1.7 2.4-1.8c1-.1 1.7-.2 1.7-.7 0-.3-.4-.6-1.1-.6-.5 0-1.1.2-1.3.8h-1.5c.1-1.1 1.2-2 2.8-2 2.4 0 2.6 1.5 2.6 2v3.1c0 .3.1.7.2 1h-1.4c-.1-.1-.1-.3-.2-.6zm0-2.3c-.3.2-.8.3-1.4.4-.8.1-1.2.2-1.2.7 0 .3.4.6 1 .6.9 0 1.6-.3 1.6-1.1v-.6zM151.3 24.5h-1.4V24c-.4.4-.9.7-1.5.7-1.4 0-2.3-1.1-2.3-2.6v-3.5h1.5V22c0 .3.1 1.1 1.1 1.1.7 0 1.1-.5 1.1-1.1v-3.4h1.5v5.9zM155.5 24.5c-1.7.2-2.7-.9-2.7-2.5v-2.1h-.7v-1.3h.7v-1.5h1.5v1.5h1.1v1.3h-1.1V22c0 .8.4 1.1 1.1 1.1l.1 1.4zM157.8 22.2c.2.7.8 1.2 1.5 1.2.5 0 1-.2 1.2-.7h1.6c-.3 1.2-1.4 2-2.9 2-1.7 0-3-1.4-3-3.1s1.4-3.1 3-3.1c1.8 0 3.2 1.3 3 3.7h-4.4zm2.9-1.3c-.2-.7-.8-1.1-1.5-1.1s-1.2.4-1.5 1.1h3z"/><g><path class="prefix__st0" d="M134 34.3c.2.7.8 1.2 1.5 1.2.5 0 1-.2 1.2-.7h1.6c-.3 1.2-1.4 2-2.9 2-1.7 0-3-1.4-3-3.1s1.4-3.1 3-3.1c1.8 0 3.2 1.3 3 3.7H134zm2.9-1.2c-.2-.7-.8-1.1-1.5-1.1s-1.2.4-1.5 1.1h3zm-.8-3.2H135l1.1-1.6h1.7l-1.7 1.6zM142.3 36.8c-1.8 0-3.1-1.4-3.1-3.1 0-1.7 1.3-3.1 3.1-3.1 1.4 0 2.5.8 2.9 2.2h-1.6c-.2-.4-.7-.8-1.2-.8-.9 0-1.5.8-1.5 1.7s.7 1.7 1.5 1.7c.6 0 1.1-.3 1.2-.8h1.6c-.4 1.5-1.5 2.2-2.9 2.2zM151.8 33.8c0 1.8-1.3 3.1-3 3.1-1.6 0-3-1.3-3-3.1s1.3-3.1 3-3.1c1.7-.2 3 1.2 3 3.1zm-1.5 0c0-1-.7-1.7-1.5-1.7s-1.5.7-1.5 1.7.7 1.7 1.5 1.7 1.5-.7 1.5-1.7zM154.4 36.7h-1.5V28h1.5v8.7zM157.1 34.3c.2.7.8 1.2 1.5 1.2.5 0 1-.2 1.2-.7h1.6c-.3 1.2-1.4 2-2.9 2-1.7 0-3-1.4-3-3.1s1.4-3.1 3-3.1c1.8 0 3.2 1.3 3 3.7h-4.4zm3-1.2c-.2-.7-.8-1.1-1.5-1.1s-1.2.4-1.5 1.1h3z"/></g><g><path class="prefix__st0" d="M136.1 48.8c-.7 0-1.3-.3-1.7-.7v3.2h-1.5v-8.6h1.5v.6c.5-.5 1.1-.8 1.8-.8 1.5 0 2.8 1.3 2.8 3.1-.2 2-1.4 3.2-2.9 3.2zm-.3-4.6c-.9 0-1.5.8-1.5 1.7s.7 1.7 1.5 1.7c.9 0 1.5-.7 1.5-1.7s-.6-1.7-1.5-1.7zM141.1 46.4c.2.7.8 1.2 1.5 1.2.5 0 1-.2 1.2-.7h1.6c-.3 1.2-1.4 2-2.9 2-1.7 0-3-1.4-3-3.1s1.4-3.1 3-3.1c1.8 0 3.2 1.3 3 3.7 0 .1-4.4.1-4.4 0zm3-1.2c-.2-.7-.8-1.1-1.5-1.1s-1.2.4-1.5 1.1h3zm-.9-3h-1.1l1.1-1.6h1.7l-1.7 1.6zM152.5 48.8H151v-.6c-.5.5-1.1.8-1.8.8-1.5 0-2.8-1.3-2.8-3.1s1.3-3.1 2.8-3.1c.7 0 1.3.2 1.8.7v-3.2h1.5v8.5zm-3.1-4.6c-.9 0-1.5.7-1.5 1.7s.7 1.7 1.5 1.7c.9 0 1.5-.8 1.5-1.7 0-1.1-.6-1.7-1.5-1.7zM157.8 48.2c-.4.4-1 .7-1.8.7-1.2 0-2.4-.6-2.4-1.9 0-1.3 1.1-1.7 2.4-1.8 1-.1 1.7-.2 1.7-.7 0-.3-.4-.6-1.1-.6-.5 0-1.1.2-1.3.8h-1.5c.1-1.1 1.2-2 2.8-2 2.4 0 2.6 1.5 2.6 2v3.1c0 .3.1.7.2 1H158c-.1-.1-.2-.4-.2-.6zm0-2.3c-.3.2-.8.3-1.4.4-.8.1-1.2.2-1.2.7 0 .3.4.6 1 .6.9 0 1.6-.3 1.6-1.1v-.6zM166.3 48.4c0 2-1.2 3.2-3.1 3.2-1.4 0-2.6-.8-2.9-2.1h1.7c.2.5.8.7 1.2.7 1.1 0 1.5-.7 1.5-1.8v-.3c-.5.4-1.1.7-1.8.7-1.5 0-2.8-1.3-2.8-3.1s1.3-3.1 2.8-3.1c.7 0 1.3.3 1.8.8v-.6h1.4l.2 5.6zm-3-4.2c-.9 0-1.5.7-1.5 1.7s.7 1.7 1.5 1.7 1.5-.8 1.5-1.7c.1-1.1-.7-1.7-1.5-1.7zM173.3 45.8c0 1.8-1.3 3.1-3 3.1-1.6 0-3-1.3-3-3.1s1.3-3.1 3-3.1 3 1.4 3 3.1zm-1.5 0c0-1-.7-1.7-1.5-1.7s-1.5.7-1.5 1.7.7 1.7 1.5 1.7 1.5-.7 1.5-1.7zM180.2 48.4c0 2-1.2 3.2-3.1 3.2-1.4 0-2.6-.8-2.9-2.1h1.7c.2.5.8.7 1.2.7 1.1 0 1.5-.7 1.5-1.8v-.3c-.5.4-1.1.7-1.8.7-1.5 0-2.8-1.3-2.8-3.1s1.3-3.1 2.8-3.1c.7 0 1.3.3 1.8.8v-.6h1.4l.2 5.6zm-3.1-4.2c-.9 0-1.5.7-1.5 1.7s.7 1.7 1.5 1.7 1.5-.8 1.5-1.7c0-1.1-.6-1.7-1.5-1.7zM183 42.2h-1.5v-1.4h1.5v1.4zm0 6.6h-1.5v-5.9h1.5v5.9zM190.2 51.4h-1.5v-3.2c-.5.4-1.1.7-1.8.7-1.5 0-2.8-1.3-2.8-3.1s1.3-3.1 2.8-3.1c.7 0 1.3.3 1.8.8V43h1.4l.1 8.4zm-3-7.2c-.9 0-1.5.7-1.5 1.7s.7 1.7 1.5 1.7c.9 0 1.5-.8 1.5-1.7 0-1.1-.7-1.7-1.5-1.7zM196.9 48.8h-1.4v-.5c-.4.4-.9.7-1.5.7-1.4 0-2.3-1.1-2.3-2.6V43h1.5v3.4c0 .3.1 1.1 1.1 1.1.7 0 1.1-.5 1.1-1.1V43h1.5v5.8zM199.5 46.4c.2.7.8 1.2 1.5 1.2.5 0 1-.2 1.2-.7h1.6c-.3 1.2-1.4 2-2.9 2-1.7 0-3-1.4-3-3.1s1.4-3.1 3-3.1c1.8 0 3.2 1.3 3 3.7 0 .1-4.4.1-4.4 0zm3-1.2c-.2-.7-.8-1.1-1.5-1.1s-1.2.4-1.5 1.1h3z"/></g><g><path class="prefix__st0" d="M136 60.8h-1.6l-2.2-5.9h1.6l1.5 4.4 1.5-4.4h1.6l-2.4 5.9zM142.8 60.3c-.4.4-1 .7-1.8.7-1.2 0-2.4-.6-2.4-1.9s1.1-1.7 2.4-1.8c1-.1 1.7-.2 1.7-.7 0-.3-.4-.6-1.1-.6-.5 0-1.1.2-1.3.8h-1.5c.1-1.1 1.2-2 2.8-2 2.4 0 2.6 1.5 2.6 2v3.1c0 .3.1.7.2 1H143c-.2-.1-.2-.3-.2-.6zm-.1-2.2c-.3.2-.8.3-1.4.4-.8.1-1.2.2-1.2.7 0 .3.4.6 1 .6.9 0 1.6-.3 1.6-1.1v-.6zM150.7 60.8h-1.4v-.5c-.4.4-.9.7-1.5.7-1.4 0-2.3-1.1-2.3-2.6V55h1.5v3.4c0 .3.1 1.1 1.1 1.1.7 0 1.1-.5 1.1-1.1V55h1.5v5.8zM157.9 60.8h-1.4v-.6c-.5.5-1.1.8-1.8.8-1.5 0-2.8-1.3-2.8-3.1s1.3-3.1 2.8-3.1c.7 0 1.3.2 1.8.7v-3.2h1.5l-.1 8.5zm-3.1-4.6c-.9 0-1.5.7-1.5 1.7s.7 1.7 1.5 1.7c.9 0 1.5-.8 1.5-1.7 0-.8-.6-1.7-1.5-1.7z"/></g></g></svg>